<mxfile host="65bd71144e">
    <diagram id="3RKsSDuyYAWZcZ79wfNi" name="Page-1">
        <mxGraphModel dx="495" dy="475" grid="1" gridSize="10" guides="1" tooltips="1" connect="1" arrows="1" fold="1" page="1" pageScale="1" pageWidth="850" pageHeight="1100" math="0" shadow="0">
            <root>
                <mxCell id="0"/>
                <mxCell id="1" parent="0"/>
                <mxCell id="2" value="" style="whiteSpace=wrap;html=1;fillColor=#1ba1e2;fontColor=#ffffff;strokeColor=#006EAF;fontSize=18;" vertex="1" parent="1">
                    <mxGeometry x="50" y="60" width="120" height="120" as="geometry"/>
                </mxCell>
                <mxCell id="3" value="Paper" style="text;strokeColor=none;align=center;fillColor=none;html=1;verticalAlign=middle;whiteSpace=wrap;rounded=0;fontSize=18;" vertex="1" parent="1">
                    <mxGeometry x="80" y="20" width="60" height="30" as="geometry"/>
                </mxCell>
                <mxCell id="4" value="Id" style="text;strokeColor=none;align=center;fillColor=none;html=1;verticalAlign=middle;whiteSpace=wrap;rounded=0;fontSize=18;" vertex="1" parent="1">
                    <mxGeometry x="70" y="70" width="60" height="30" as="geometry"/>
                </mxCell>
            </root>
        </mxGraphModel>
    </diagram>
</mxfile>